{"title":"Yoddha 2013 Marathi 1080p Untouched WebHD x264 AAC [TMB]","uid":15547481,"size":2909534551,"categoryP":"video","categoryS":"movies","magnet":"?xt=urn:btih:f48f534081184b6b3085ea20f19f2c43c165606a&amp;dn=Yoddha+2013+Marathi+1080p+Untouched+WebHD+x264+AAC+%5BTMB%5D&amp;tr=udp%3A%2F%2Ftracker.leechers-paradise.org%3A6969&amp;tr=udp%3A%2F%2Fzer0day.ch%3A1337&amp;tr=udp%3A%2F%2Fopen.demonii.com%3A1337&amp;tr=udp%3A%2F%2Ftracker.coppersurfer.tk%3A6969&amp;tr=udp%3A%2F%2Fexodus.desync.com%3A6969","seeders":1,"leechers":0,"uploader":"Manoj_vb","files":1,"time":1470990134,"description":"http://i1306.photobucket.com/albums/s570/zyx55e/44_zpsc46e809d.gif\r\n \nhttp://s25.postimg.org/65qozda0v/402835_273674162748280_1736728927_n.jpg\r\n \nhttp://s25.postimg.org/vzvwbekn3/vlcsnap_1498_03_28_02h20m02s938.png\r\n \nhttp://s25.postimg.org/ur80prsov/vlcsnap_6117_03_22_05h15m56s227.png\r\n \nhttp://s25.postimg.org/dpf6nodtr/vlcsnap_6288_09_24_19h53m26s932.png\r\n \nhttp://s25.postimg.org/7r1ddfuv3/vlcsnap_6605_06_19_19h45m46s036.png\r\n \nhttp://s25.postimg.org/imsr8sfsv/vlcsnap_6798_12_05_00h08m16s395.png\r\n \nhttp://s25.postimg.org/brd43fapr/vlcsnap_6799_03_22_08h43m50s253.png\r\n \nhttp://s25.postimg.org/iya7ljw8v/vlcsnap_7337_09_15_11h14m04s916.png\r\n \nhttp://s25.postimg.org/411qkjj0f/vlcsnap_7785_01_28_16h29m56s153.png\r\n \nhttp://s25.postimg.org/knnw7d1bz/vlcsnap_9451_02_12_05h17m02s828.png\r\n \nhttp://s25.postimg.org/yq588lhbz/vlcsnap_9525_06_08_18h51m12s472.png\r\n \nhttp://s25.postimg.org/61wvj44jj/vlcsnap_9795_03_22_01h12m57s081.png\r\n \nhttp://i1306.photobucket.com/albums/s570/zyx55e/oie_11162011MOJeDGQI_zpsc25b2b81.gif\r\n\r\nGeneral\r\nComplete name               : Yoddha 2013 1080p Untouched WebHD x264 AAC [TMB].mp4\r\nFormat                      : MPEG-4\r\nFormat profile              : Base Media\r\nCodec ID                    : isom (isom/iso2/avc1/mp41)\r\nFile size                   : 2.71 GiB\r\nDuration                    : 2h 11mn\r\nOverall bit rate mode       : Variable\r\nOverall bit rate            : 2 942 Kbps\r\n\r\nVideo\r\nFormat                      : AVC\r\nFormat/Info                 : Advanced Video Codec\r\nFormat profile              :   \r\nFormat settings, CABAC      : Yes\r\nFormat settings, ReFrames   : 2 frames\r\nCodec ID                    : avc1\r\nCodec ID/Info               : Advanced Video Coding\r\nDuration                    : 2h 11mn\r\nBit rate                    : 2 814 Kbps\r\nWidth                       : 1 920 pixels\r\nHeight                      : 1 080 pixels\r\nDisplay aspect ratio        : 16:9\r\nFrame rate mode             : Constant\r\nFrame rate                  : 24.000 fps\r\nColor space                 : YUV\r\nChroma subsampling          : 4:2:0\r\nBit depth                   : 8 bits\r\nScan type                   : Progressive\r\nBits/(Pixel*Frame)          : 0.057\r\nStream size                 : 2.59 GiB (96%)\r\n\r\nAudio\r\nFormat                      : AAC\r\nFormat/Info                 : Advanced Audio Codec\r\nFormat profile              : LC\r\nCodec ID                    : 40\r\nDuration                    : 2h 11mn\r\nBit rate mode               : Variable\r\nBit rate                    : 126 Kbps\r\nChannel(s)                  : 2 channels\r\nChannel positions           : Front: L R\r\nSampling rate               : 44.1 KHz\r\nFrame rate                  : 43.066 fps (1024 spf)\r\nCompression mode            : Lossy\r\nStream size                 : 118 MiB (4%)\r\n\r\nShared by Manojvb\r\n\r\nSeeding 24x7... Extreme Seeding...\r\n\r\n \nhttp://i1306.photobucket.com/albums/s570/zyx55e/oie_1117625zVIGKvnK_zpsc8b6e055.gif","torrent":{"xt":"urn:btih:f48f534081184b6b3085ea20f19f2c43c165606a","amp;dn":"Yoddha+2013+Marathi+1080p+Untouched+WebHD+x264+AAC+%5BTMB%5D","amp;tr":["udp%3A%2F%2Ftracker.leechers-paradise.org%3A6969","udp%3A%2F%2Fzer0day.ch%3A1337","udp%3A%2F%2Fopen.demonii.com%3A1337","udp%3A%2F%2Ftracker.coppersurfer.tk%3A6969","udp%3A%2F%2Fexodus.desync.com%3A6969"],"infoHash":"f48f534081184b6b3085ea20f19f2c43c165606a","infoHashBuffer":{"type":"Buffer","data":[244,143,83,64,129,24,75,107,48,133,234,32,241,159,44,67,193,101,96,106]},"announce":[],"urlList":[]}}